<?xml version="1.0" encoding="UTF-8"?>
<!DOCTYPE svg PUBLIC "-//W3C//DTD SVG 1.1//EN" "http://www.w3.org/Graphics/SVG/1.1/DTD/svg11.dtd">
<svg xmlns="http://www.w3.org/2000/svg" version="1.1" width="500px" height="500px" style="shape-rendering:geometricPrecision; text-rendering:geometricPrecision; image-rendering:optimizeQuality; fill-rule:evenodd; clip-rule:evenodd" xmlns:xlink="http://www.w3.org/1999/xlink">
<g><path style="opacity:1" fill="#fefefe" d="M -0.5,-0.5 C 166.167,-0.5 332.833,-0.5 499.5,-0.5C 499.5,166.167 499.5,332.833 499.5,499.5C 332.833,499.5 166.167,499.5 -0.5,499.5C -0.5,332.833 -0.5,166.167 -0.5,-0.5 Z"/></g>
<g><path style="opacity:1" fill="#a5cfe5" d="M 158.5,137.5 C 158.5,139.5 158.5,141.5 158.5,143.5C 156.692,143.491 155.025,143.991 153.5,145C 154.448,145.483 155.448,145.649 156.5,145.5C 156.5,145.833 156.5,146.167 156.5,146.5C 155.167,146.5 153.833,146.5 152.5,146.5C 152.746,143.53 154.412,142.197 157.5,142.5C 157.216,140.585 157.549,138.919 158.5,137.5 Z"/></g>
<g><path style="opacity:1" fill="#196ab1" d="M 163.5,144.5 C 162.883,144.611 162.383,144.944 162,145.5C 159.975,157.746 157.809,169.746 155.5,181.5C 154.735,180.388 153.735,179.721 152.5,179.5C 154.405,171.28 155.905,162.947 157,154.5C 157.805,151.304 157.638,148.304 156.5,145.5C 155.448,145.649 154.448,145.483 153.5,145C 155.025,143.991 156.692,143.491 158.5,143.5C 158.5,141.5 158.5,139.5 158.5,137.5C 159.191,132.402 160.358,127.402 162,122.5C 163.378,128.432 164.211,134.432 164.5,140.5C 165.833,140.5 167.167,140.5 168.5,140.5C 168.5,141.833 168.5,143.167 168.5,144.5C 166.833,144.5 165.167,144.5 163.5,144.5 Z"/></g>
<g><path style="opacity:1" fill="#4599db" d="M 156.5,145.5 C 157.638,148.304 157.805,151.304 157,154.5C 155.905,162.947 154.405,171.28 152.5,179.5C 151.549,180.919 151.216,182.585 151.5,184.5C 150.833,184.833 150.167,185.167 149.5,185.5C 151.706,172.469 154.04,159.469 156.5,146.5C 156.5,146.167 156.5,145.833 156.5,145.5 Z"/></g>
<g><path style="opacity:1" fill="#0f5796" d="M 163.5,144.5 C 160.064,164.67 156.397,184.67 152.5,204.5C 151.995,201.479 151.328,198.479 150.5,195.5C 151.346,191.882 151.68,188.215 151.5,184.5C 151.216,182.585 151.549,180.919 152.5,179.5C 153.735,179.721 154.735,180.388 155.5,181.5C 157.809,169.746 159.975,157.746 162,145.5C 162.383,144.944 162.883,144.611 163.5,144.5 Z"/></g>
<g><path style="opacity:1" fill="#f54c6f" d="M 161.5,180.5 C 160.128,191.293 158.461,201.959 156.5,212.5C 155.357,209.024 155.19,205.358 156,201.5C 157.533,194.298 159.367,187.298 161.5,180.5 Z"/></g>
<g><path style="opacity:1" fill="#0566b0" d="M 151.5,184.5 C 151.68,188.215 151.346,191.882 150.5,195.5C 151.328,198.479 151.995,201.479 152.5,204.5C 150.868,208.244 149.701,212.244 149,216.5C 148.378,218.731 147.211,220.565 145.5,222C 146.612,224.108 145.946,225.608 143.5,226.5C 145.674,213.487 147.674,200.487 149.5,187.5C 149.5,186.833 149.5,186.167 149.5,185.5C 150.167,185.167 150.833,184.833 151.5,184.5 Z"/></g>
<g><path style="opacity:1" fill="#3e97db" d="M 149.5,187.5 C 147.674,200.487 145.674,213.487 143.5,226.5C 137.914,254.321 132.414,282.321 127,310.5C 126.617,311.056 126.117,311.389 125.5,311.5C 132.625,269.877 140.625,228.543 149.5,187.5 Z"/></g>
<g><path style="opacity:1" fill="#ba3346" d="M 162.5,186.5 C 163.557,194.319 164.224,202.319 164.5,210.5C 162.533,202.903 161.866,194.903 162.5,186.5 Z"/></g>
<g><path style="opacity:1" fill="#e80c3e" d="M 162.5,186.5 C 161.866,194.903 162.533,202.903 164.5,210.5C 165.212,217.143 165.546,223.809 165.5,230.5C 165.816,238.752 165.482,246.919 164.5,255C 165.897,262.904 167.23,270.738 168.5,278.5C 168.5,279.833 168.5,281.167 168.5,282.5C 168.371,290.353 168.705,298.186 169.5,306C 169.333,307.833 169.167,309.667 169,311.5C 168.329,310.748 167.496,310.414 166.5,310.5C 164.836,307.134 164.003,303.467 164,299.5C 161.321,270.501 158.821,241.501 156.5,212.5C 158.461,201.959 160.128,191.293 161.5,180.5C 161.343,179.127 161.51,177.793 162,176.5C 162.498,179.817 162.665,183.15 162.5,186.5 Z"/></g>
<g><path style="opacity:1" fill="#bf3446" d="M 165.5,230.5 C 167.099,246.311 168.099,262.311 168.5,278.5C 167.23,270.738 165.897,262.904 164.5,255C 165.482,246.919 165.816,238.752 165.5,230.5 Z"/></g>
<g><path style="opacity:1" fill="#1a68ab" d="M 301.5,267.5 C 323.337,267.175 332.503,277.842 329,299.5C 323.966,311.772 314.8,316.938 301.5,315C 291.676,313.176 285.842,307.342 284,297.5C 281.414,282.312 287.247,272.312 301.5,267.5 Z"/></g>
<g><path style="opacity:1" fill="#0963a9" d="M 268.5,268.5 C 268.5,270.833 268.5,273.167 268.5,275.5C 263.5,275.5 258.5,275.5 253.5,275.5C 253.5,288.5 253.5,301.5 253.5,314.5C 250.5,314.5 247.5,314.5 244.5,314.5C 244.5,301.5 244.5,288.5 244.5,275.5C 239.5,275.5 234.5,275.5 229.5,275.5C 229.5,273.167 229.5,270.833 229.5,268.5C 242.5,268.5 255.5,268.5 268.5,268.5 Z"/></g>
<g><path style="opacity:1" fill="#1666ab" d="M 348.5,268.5 C 351.5,268.5 354.5,268.5 357.5,268.5C 357.333,279.172 357.5,289.839 358,300.5C 359.337,305.34 362.504,307.673 367.5,307.5C 373.47,308.026 376.97,305.359 378,299.5C 378.5,289.172 378.666,278.839 378.5,268.5C 381.833,268.5 385.167,268.5 388.5,268.5C 388.667,279.172 388.5,289.839 388,300.5C 385.005,310.797 378.005,315.797 367,315.5C 359.606,315.638 353.939,312.638 350,306.5C 348.559,293.908 348.059,281.241 348.5,268.5 Z"/></g>
<g><path style="opacity:1" fill="#1c68ac" d="M 407.5,268.5 C 416.839,268.334 426.173,268.5 435.5,269C 446.038,270.898 449.871,277.065 447,287.5C 445.295,291.372 442.462,294.038 438.5,295.5C 442.126,301.922 446.126,308.089 450.5,314C 446.833,314.667 443.167,314.667 439.5,314C 435.916,308.835 432.583,303.502 429.5,298C 425.514,297.501 421.514,297.334 417.5,297.5C 417.5,303.167 417.5,308.833 417.5,314.5C 414.167,314.5 410.833,314.5 407.5,314.5C 407.5,299.167 407.5,283.833 407.5,268.5 Z"/></g>
<g><path style="opacity:1" fill="#0761a9" d="M 152.5,204.5 C 149.452,226.468 145.452,248.135 140.5,269.5C 139.307,269.97 138.64,270.97 138.5,272.5C 137.63,279.161 136.797,285.828 136,292.5C 133.166,298.501 131.999,304.834 132.5,311.5C 130.901,311.232 129.568,311.566 128.5,312.5C 127.209,312.737 126.209,312.404 125.5,311.5C 126.117,311.389 126.617,311.056 127,310.5C 132.414,282.321 137.914,254.321 143.5,226.5C 145.946,225.608 146.612,224.108 145.5,222C 147.211,220.565 148.378,218.731 149,216.5C 149.701,212.244 150.868,208.244 152.5,204.5 Z"/></g>
<g><path style="opacity:1" fill="#fbfcfd" d="M 301.5,275.5 C 317.129,275.326 322.963,282.993 319,298.5C 315.712,306.276 309.879,309.109 301.5,307C 298.667,305.5 296.5,303.333 295,300.5C 292.684,293.649 293.017,286.983 296,280.5C 297.73,278.598 299.563,276.931 301.5,275.5 Z"/></g>
<g><path style="opacity:1" fill="#c0d7e8" d="M 229.5,275.5 C 234.5,275.5 239.5,275.5 244.5,275.5C 244.5,288.5 244.5,301.5 244.5,314.5C 243.505,302.011 243.171,289.344 243.5,276.5C 238.637,276.819 233.97,276.486 229.5,275.5 Z"/></g>
<g><path style="opacity:1" fill="#8bb5d6" d="M 268.5,268.5 C 269.473,270.948 269.806,273.615 269.5,276.5C 264.5,276.5 259.5,276.5 254.5,276.5C 254.829,289.344 254.495,302.011 253.5,314.5C 253.5,301.5 253.5,288.5 253.5,275.5C 258.5,275.5 263.5,275.5 268.5,275.5C 268.5,273.167 268.5,270.833 268.5,268.5 Z"/></g>
<g><path style="opacity:1" fill="#fbfcfd" d="M 417.5,276.5 C 423.176,276.334 428.843,276.501 434.5,277C 438.213,278.691 439.379,281.525 438,285.5C 436.786,287.049 435.286,288.215 433.5,289C 428.177,289.499 422.844,289.666 417.5,289.5C 417.5,285.167 417.5,280.833 417.5,276.5 Z"/></g>
<g><path style="opacity:1" fill="#104c82" d="M 140.5,269.5 C 138.574,283.91 136.241,298.243 133.5,312.5C 131.833,312.5 130.167,312.5 128.5,312.5C 129.568,311.566 130.901,311.232 132.5,311.5C 131.999,304.834 133.166,298.501 136,292.5C 136.797,285.828 137.63,279.161 138.5,272.5C 138.64,270.97 139.307,269.97 140.5,269.5 Z"/></g>
<g><path style="opacity:1" fill="#d0d0d0" d="M 155.5,249.5 C 154.856,256.809 153.522,263.975 151.5,271C 151.914,283.655 152.248,296.488 152.5,309.5C 152.167,310.5 151.833,311.5 151.5,312.5C 150.575,311.359 149.741,311.359 149,312.5C 148.105,309.233 146.272,308.566 143.5,310.5C 143.404,305.783 144.737,301.283 147.5,297C 146.949,293.335 146.615,289.669 146.5,286C 146.693,282.846 147.693,280.013 149.5,277.5C 148.726,274.2 148.559,270.866 149,267.5C 148,268.5 147,269.5 146,270.5C 145.833,269.833 145.667,269.167 145.5,268.5C 147.4,263.065 149.567,257.731 152,252.5C 153.039,251.29 154.206,250.29 155.5,249.5 Z"/></g>
<g><path style="opacity:1" fill="#a0a0a0" d="M 143.5,310.5 C 146.272,308.566 148.105,309.233 149,312.5C 149.741,311.359 150.575,311.359 151.5,312.5C 151.833,311.5 152.167,310.5 152.5,309.5C 152.248,296.488 151.914,283.655 151.5,271C 153.522,263.975 154.856,256.809 155.5,249.5C 155.927,246.959 156.26,247.126 156.5,250C 155.206,271.48 154.206,292.98 153.5,314.5C 149.57,314.365 146.236,313.032 143.5,310.5 Z"/></g>
<g><path style="opacity:1" fill="#d39faa" d="M 170.5,306.5 C 171.8,309.024 171.8,311.691 170.5,314.5C 169.893,314.376 169.56,314.043 169.5,313.5C 170.468,311.393 170.802,309.059 170.5,306.5 Z"/></g>
<g><path style="opacity:1" fill="#be3446" d="M 168.5,282.5 C 169.921,290.291 170.587,298.291 170.5,306.5C 170.802,309.059 170.468,311.393 169.5,313.5C 168.167,312.833 167.167,311.833 166.5,310.5C 167.496,310.414 168.329,310.748 169,311.5C 169.167,309.667 169.333,307.833 169.5,306C 168.705,298.186 168.371,290.353 168.5,282.5 Z"/></g>
<g><path style="opacity:1" fill="#8c8c8c" d="M 146.5,327.5 C 145.262,327.19 145.262,326.69 146.5,326C 149.656,326.053 152.156,324.886 154,322.5C 154.308,323.308 154.808,323.975 155.5,324.5C 161.641,323.415 167.307,322.082 172.5,320.5C 174.308,317.819 175.641,317.985 176.5,321C 176.095,321.945 175.428,322.612 174.5,323C 165.185,324.697 155.851,326.197 146.5,327.5 Z"/></g>
<g><path style="opacity:1" fill="#cacaca" d="M 172.5,320.5 C 167.307,322.082 161.641,323.415 155.5,324.5C 154.808,323.975 154.308,323.308 154,322.5C 152.156,324.886 149.656,326.053 146.5,326C 145.262,326.69 145.262,327.19 146.5,327.5C 149.534,329.018 152.867,329.851 156.5,330C 163.868,330.313 171.201,330.98 178.5,332C 179.056,332.383 179.389,332.883 179.5,333.5C 178.601,334.472 177.434,335.138 176,335.5C 171.82,335.028 167.487,335.028 163,335.5C 159.397,335.45 156.064,334.783 153,333.5C 152.626,334.416 152.126,335.25 151.5,336C 138.154,336.334 124.821,336.834 111.5,337.5C 112.751,335.78 114.251,335.447 116,336.5C 118.522,334.819 121.355,333.819 124.5,333.5C 125.647,333.818 126.481,334.484 127,335.5C 127.381,332.959 128.214,330.626 129.5,328.5C 127.209,325.679 124.209,323.846 120.5,323C 127.323,321.01 134.323,320.01 141.5,320C 142,319.5 142.5,319 143,318.5C 145.333,319.167 147.667,319.833 150,320.5C 157.251,320.413 164.584,319.746 172,318.5C 172.464,319.094 172.631,319.761 172.5,320.5 Z"/></g>
<g><path style="opacity:1" fill="#8d8d8d" d="M 179.5,333.5 C 179.804,334.15 180.137,334.817 180.5,335.5C 157.377,337.798 134.377,338.464 111.5,337.5C 124.821,336.834 138.154,336.334 151.5,336C 152.126,335.25 152.626,334.416 153,333.5C 156.064,334.783 159.397,335.45 163,335.5C 167.487,335.028 171.82,335.028 176,335.5C 177.434,335.138 178.601,334.472 179.5,333.5 Z"/></g>
<g><path style="opacity:1" fill="#1767ab" d="M 250.5,343.5 C 256.842,343.334 263.175,343.5 269.5,344C 277.9,349.079 278.567,355.079 271.5,362C 265.956,363.404 260.29,363.904 254.5,363.5C 254.5,367.833 254.5,372.167 254.5,376.5C 253.167,376.5 251.833,376.5 250.5,376.5C 250.5,365.5 250.5,354.5 250.5,343.5 Z"/></g>
<g><path style="opacity:1" fill="#1e6aad" d="M 301.5,343.5 C 303.792,343.244 305.959,343.577 308,344.5C 312.069,354.873 316.236,365.207 320.5,375.5C 318.955,376.452 317.288,376.785 315.5,376.5C 314.801,373.427 313.801,370.427 312.5,367.5C 307.208,366.505 301.875,366.172 296.5,366.5C 295.801,369.573 294.801,372.573 293.5,375.5C 291.926,376.631 290.259,376.798 288.5,376C 293.252,365.329 297.586,354.496 301.5,343.5 Z"/></g>
<g><path style="opacity:1" fill="#1466ab" d="M 334.5,343.5 C 341.508,343.334 348.508,343.5 355.5,344C 361.484,347.363 362.984,352.197 360,358.5C 358.075,360.213 355.908,361.547 353.5,362.5C 356.376,367.086 359.376,371.586 362.5,376C 360.833,376.667 359.167,376.667 357.5,376C 354.636,371.967 351.969,367.801 349.5,363.5C 345.893,362.511 342.226,362.177 338.5,362.5C 338.5,367.167 338.5,371.833 338.5,376.5C 337.167,376.5 335.833,376.5 334.5,376.5C 334.5,365.5 334.5,354.5 334.5,343.5 Z"/></g>
<g><path style="opacity:1" fill="#0862a9" d="M 379.5,343.5 C 380.833,343.5 382.167,343.5 383.5,343.5C 383.5,354.5 383.5,365.5 383.5,376.5C 382.167,376.5 380.833,376.5 379.5,376.5C 379.5,365.5 379.5,354.5 379.5,343.5 Z"/></g>
<g><path style="opacity:1" fill="#226cae" d="M 409.5,342.5 C 413.582,342.344 417.582,342.844 421.5,344C 425.394,345.555 426.394,347.722 424.5,350.5C 422.394,349.57 420.394,348.404 418.5,347C 415.167,346.333 411.833,346.333 408.5,347C 406.32,349.418 405.987,352.084 407.5,355C 412.833,356.667 418.167,358.333 423.5,360C 428.756,364.924 428.756,369.924 423.5,375C 417.92,376.517 412.253,376.851 406.5,376C 402.983,374.516 401.149,372.016 401,368.5C 401.561,367.978 402.228,367.645 403,367.5C 406.786,373.043 411.953,374.876 418.5,373C 423.543,371.131 424.543,368.131 421.5,364C 417.224,362.514 412.891,361.181 408.5,360C 400.994,356.621 399.66,351.621 404.5,345C 406.315,344.243 407.981,343.41 409.5,342.5 Z"/></g>
<g><path style="opacity:1" fill="#85b2d4" d="M 266.5,347.5 C 262.833,347.5 259.167,347.5 255.5,347.5C 255.5,351.5 255.5,355.5 255.5,359.5C 259.167,359.5 262.833,359.5 266.5,359.5C 262.702,360.483 258.702,360.817 254.5,360.5C 254.5,355.833 254.5,351.167 254.5,346.5C 258.702,346.183 262.702,346.517 266.5,347.5 Z"/></g>
<g><path style="opacity:1" fill="#fcfdfe" d="M 266.5,347.5 C 271.368,349.218 272.702,352.551 270.5,357.5C 269.423,358.705 268.09,359.372 266.5,359.5C 262.833,359.5 259.167,359.5 255.5,359.5C 255.5,355.5 255.5,351.5 255.5,347.5C 259.167,347.5 262.833,347.5 266.5,347.5 Z"/></g>
<g><path style="opacity:1" fill="#b0cce3" d="M 351.5,347.5 C 347.5,347.5 343.5,347.5 339.5,347.5C 339.5,351.167 339.5,354.833 339.5,358.5C 343.833,358.5 348.167,358.5 352.5,358.5C 348.03,359.486 343.363,359.819 338.5,359.5C 338.5,355.167 338.5,350.833 338.5,346.5C 343.032,346.182 347.366,346.515 351.5,347.5 Z"/></g>
<g><path style="opacity:1" fill="#fdfdfe" d="M 351.5,347.5 C 355.062,347.564 356.729,349.397 356.5,353C 356.858,356.133 355.525,357.967 352.5,358.5C 348.167,358.5 343.833,358.5 339.5,358.5C 339.5,354.833 339.5,351.167 339.5,347.5C 343.5,347.5 347.5,347.5 351.5,347.5 Z"/></g>
<g><path style="opacity:1" fill="#f0f5f9" d="M 304.5,348.5 C 307.266,353.117 309.266,358.117 310.5,363.5C 306.445,363.824 302.445,363.491 298.5,362.5C 300.312,357.722 302.312,353.055 304.5,348.5 Z"/></g>
<g><path style="opacity:1" fill="#205081" d="M 112.5,359.5 C 112.736,356.215 113.736,353.215 115.5,350.5C 115.167,349.833 114.833,349.167 114.5,348.5C 115.993,347.859 116.993,346.859 117.5,345.5C 118.151,344.909 118.818,344.243 119.5,343.5C 119.833,343.833 120.167,344.167 120.5,344.5C 118.059,349.72 115.392,354.72 112.5,359.5 Z"/></g>
<g><path style="opacity:1" fill="#e90b3c" d="M 213.5,382.5 C 213.265,383.097 212.765,383.43 212,383.5C 205.561,382.285 199.061,381.618 192.5,381.5C 186.37,369.406 180.37,357.239 174.5,345C 176.769,343.276 179.103,343.276 181.5,345C 192.002,357.667 202.669,370.167 213.5,382.5 Z"/></g>
<g><path style="opacity:1" fill="#1b4a79" d="M 112.5,359.5 C 109.949,366.933 106.615,373.933 102.5,380.5C 103.036,377.445 103.869,374.445 105,371.5C 107.572,368.242 109.406,364.575 110.5,360.5C 110.957,359.702 111.624,359.369 112.5,359.5 Z"/></g>
<g><path style="opacity:1" fill="#c9c9c9" d="M 154.5,365.5 C 152.507,364.463 150.507,364.797 148.5,366.5C 145.312,369.539 143.145,373.206 142,377.5C 140.676,378.88 139.343,379.214 138,378.5C 130.515,379.567 123.015,380.733 115.5,382C 114.262,382.69 114.262,383.19 115.5,383.5C 114.528,384.751 113.861,384.418 113.5,382.5C 114.833,380.833 114.833,379.167 113.5,377.5C 113.569,373.844 115.236,371.344 118.5,370C 117.978,369.439 117.645,368.772 117.5,368C 120.872,359.745 126.039,353.911 133,350.5C 146.017,342.271 158.35,344.271 170,356.5C 176.072,364.445 178.905,373.445 178.5,383.5C 176.194,383.007 173.861,382.674 171.5,382.5C 171.36,380.876 172.027,379.71 173.5,379C 171.001,375.508 168.501,372.008 166,368.5C 162.587,365.986 158.753,364.986 154.5,365.5 Z"/></g>
<g><path style="opacity:1" fill="#0c63ab" d="M 117.5,345.5 C 116.993,346.859 115.993,347.859 114.5,348.5C 114.833,349.167 115.167,349.833 115.5,350.5C 113.736,353.215 112.736,356.215 112.5,359.5C 111.624,359.369 110.957,359.702 110.5,360.5C 109.406,364.575 107.572,368.242 105,371.5C 103.869,374.445 103.036,377.445 102.5,380.5C 96.2402,382.486 89.5735,383.819 82.5,384.5C 81.5,384.167 80.5,383.833 79.5,383.5C 82.0879,382.416 84.2545,380.749 86,378.5C 94.6667,368.5 103.333,358.5 112,348.5C 113.488,346.84 115.321,345.84 117.5,345.5 Z"/></g>
<g><path style="opacity:1" fill="#8b8b8b" d="M 154.5,365.5 C 147.805,368.034 143.805,372.868 142.5,380C 133.378,380.325 124.378,381.492 115.5,383.5C 114.262,383.19 114.262,382.69 115.5,382C 123.015,380.733 130.515,379.567 138,378.5C 139.343,379.214 140.676,378.88 142,377.5C 143.145,373.206 145.312,369.539 148.5,366.5C 150.507,364.797 152.507,364.463 154.5,365.5 Z"/></g>
<g><path style="opacity:1" fill="#aa3041" d="M 192.5,381.5 C 199.061,381.618 205.561,382.285 212,383.5C 212.765,383.43 213.265,383.097 213.5,382.5C 214.043,382.56 214.376,382.893 214.5,383.5C 206.961,384.229 199.628,383.562 192.5,381.5 Z"/></g>
</svg>
